<svg xmlns="http://www.w3.org/2000/svg" version="1.1" xmlns:xlink="http://www.w3.org/1999/xlink" xmlns:svgjs="http://svgjs.dev/svgjs" width="1000" height="1364" viewBox="0 0 1000 1364"><g transform="matrix(1,0,0,1,0.3251760621498079,0.5522267206476954)"><svg viewBox="0 0 181 247" data-background-color="#729343" preserveAspectRatio="xMidYMid meet" height="1364" width="1000" xmlns="http://www.w3.org/2000/svg" xmlns:xlink="http://www.w3.org/1999/xlink"><g id="tight-bounds" transform="matrix(1,0,0,1,-0.058856867249119205,-0.09999999999999432)"><svg viewBox="0 0 181.1176738002894 247.2" height="247.2" width="181.1176738002894"><g><svg viewBox="0 0 463.1858978732336 632.1832185218823" height="247.2" width="181.1176738002894"><g transform="matrix(1,0,0,1,33.832948936616816,497.4871026299904)"><svg viewBox="0 0 395.52 134.69611589189185" height="134.69611589189185" width="395.52"><g><svg viewBox="0 0 395.52 134.69611589189185" height="134.69611589189185" width="395.52"><g><svg viewBox="0 0 395.52 72.64864864864863" height="72.64864864864863" width="395.52"><g transform="matrix(1,0,0,1,0,0)"><svg width="395.52" viewBox="0.25 -35 190.5399932861328 35" height="72.64864864864863" data-palette-color="#096a2e"><path d="M32.25 0L27.75-9.85 7.45-9.85 3 0 0.25 0 16.35-35 18.9-35 35 0 32.25 0ZM8.45-12L26.8-12 17.6-32.2 8.45-12ZM64.75-32.7L43.9-32.7 43.9-17.75 62.55-17.75 62.55-15.45 43.9-15.45 43.9 0 41.35 0 41.35-35 64.75-35 64.75-32.7ZM96.3-32.7L75.45-32.7 75.45-17.75 94.09-17.75 94.09-15.45 75.45-15.45 75.45 0 72.89 0 72.89-35 96.3-35 96.3-32.7ZM104.44 0L104.44-35 106.99-35 106.99 0 104.44 0ZM146.39 0L143.49 0 135.14-11.7Q133.29-11.45 131.74-11.45L131.74-11.45 121.74-11.45 121.74 0 119.19 0 119.19-35 131.74-35Q138.34-35 142.09-31.88 145.84-28.75 145.84-23.2L145.84-23.2Q145.84-19.05 143.72-16.23 141.59-13.4 137.64-12.25L137.64-12.25 146.39 0ZM121.74-13.7L131.74-13.7Q137.34-13.7 140.29-16.18 143.24-18.65 143.24-23.2L143.24-23.2Q143.24-27.75 140.29-30.23 137.34-32.7 131.74-32.7L131.74-32.7 121.74-32.7 121.74-13.7ZM190.79 0L188.29 0 188.24-29.95 173.59-4.65 172.34-4.65 157.69-29.85 157.69 0 155.19 0 155.19-35 157.34-35 172.99-7.95 188.64-35 190.74-35 190.79 0Z" opacity="1" transform="matrix(1,0,0,1,0,0)" fill="#096a2e" class="undefined-text-0" data-fill-palette-color="primary" id="text-0"></path></svg></g></svg></g><g transform="matrix(1,0,0,1,0,89.799251027027)"><svg viewBox="0 0 395.52 44.896864864864845" height="44.896864864864845" width="395.52"><g transform="matrix(1,0,0,1,0,0)"><svg width="395.52" viewBox="3.200000047683716 -40.5 360.75 40.95000076293945" height="44.896864864864845" data-palette-color="#8abe53"><path d="M6.35 0L3.2 0 4.2-40.5 8-40.5 16-5.35 24.15-40.5 27.95-40.5 28.95 0 25.8 0 25-32.25 17.25 0 14.8 0 7.15-32.2 6.35 0ZM48.42 0.45L48.42 0.45Q45.72 0.45 44-0.63 42.27-1.7 41.45-4.2 40.62-6.7 40.62-10.85L40.62-10.85 40.62-18.15Q40.62-22.45 41.47-24.88 42.32-27.3 44.07-28.33 45.82-29.35 48.47-29.35L48.47-29.35Q51.52-29.35 53.12-28.05 54.72-26.75 55.35-24.13 55.97-21.5 55.97-17.4L55.97-17.4 55.97-14.8 44.27-14.8 44.27-9.75Q44.27-6.95 44.7-5.33 45.12-3.7 46.05-3 46.97-2.3 48.42-2.3L48.42-2.3Q49.52-2.3 50.42-2.73 51.32-3.15 51.85-4.38 52.37-5.6 52.37-7.85L52.37-7.85 52.37-9.85 55.92-9.85 55.92-8.25Q55.92-4.3 54.3-1.93 52.67 0.45 48.42 0.45ZM44.27-18.85L44.27-16.9 52.37-16.9 52.37-19.3Q52.37-21.6 52.12-23.23 51.87-24.85 51.05-25.73 50.22-26.6 48.42-26.6L48.42-26.6Q46.92-26.6 46-25.95 45.07-25.3 44.67-23.63 44.27-21.95 44.27-18.85L44.27-18.85ZM70.79 0L67.14 0 67.14-28.9 70.79-28.9 70.79-25.9Q72.19-27.4 73.94-28.38 75.69-29.35 77.74-29.35L77.74-29.35Q79.19-29.35 80.19-28.63 81.19-27.9 81.69-26.53 82.19-25.15 82.19-23.2L82.19-23.2 82.19 0 78.54 0 78.54-22.4Q78.54-24.65 77.87-25.58 77.19-26.5 75.79-26.5L75.79-26.5Q74.54-26.5 73.24-25.75 71.94-25 70.79-23.8L70.79-23.8 70.79 0ZM100.66 0.35L100.66 0.35Q98.56 0.35 97.44-0.48 96.31-1.3 95.89-2.73 95.46-4.15 95.46-6L95.46-6 95.46-26.5 91.91-26.5 91.91-28.9 95.46-28.9 95.46-37.85 99.11-37.85 99.11-28.9 103.91-28.9 103.91-26.5 99.11-26.5 99.11-6.35Q99.11-4.25 99.59-3.38 100.06-2.5 101.66-2.5L101.66-2.5Q102.11-2.5 102.69-2.58 103.26-2.65 103.76-2.75L103.76-2.75 103.76 0.05Q103.01 0.2 102.21 0.28 101.41 0.35 100.66 0.35ZM119.04 0.45L119.04 0.45Q117.29 0.45 115.99-0.43 114.69-1.3 113.96-2.78 113.24-4.25 113.24-6L113.24-6Q113.24-8.2 113.86-9.75 114.49-11.3 115.86-12.53 117.24-13.75 119.46-14.93 121.69-16.1 124.89-17.55L124.89-17.55 124.89-19.6Q124.89-22.25 124.56-23.78 124.24-25.3 123.46-25.95 122.69-26.6 121.29-26.6L121.29-26.6Q120.14-26.6 119.24-26.15 118.34-25.7 117.79-24.63 117.24-23.55 117.24-21.65L117.24-21.65 117.24-20.65 113.64-20.7Q113.69-25.1 115.51-27.23 117.34-29.35 121.49-29.35L121.49-29.35Q125.39-29.35 126.96-27.03 128.54-24.7 128.54-19.8L128.54-19.8 128.54-5.75Q128.54-5 128.59-3.83 128.64-2.65 128.69-1.6 128.74-0.55 128.79 0L128.79 0 125.54 0Q125.44-0.95 125.24-2.13 125.04-3.3 124.99-4L124.99-4Q124.39-2.25 122.86-0.9 121.34 0.45 119.04 0.45ZM120.19-2.65L120.19-2.65Q121.29-2.65 122.19-3.2 123.09-3.75 123.79-4.53 124.49-5.3 124.89-6.1L124.89-6.1 124.89-15.1Q122.74-14 121.21-13.1 119.69-12.2 118.74-11.35 117.79-10.5 117.34-9.43 116.89-8.35 116.89-6.9L116.89-6.9Q116.89-4.6 117.89-3.63 118.89-2.65 120.19-2.65ZM144.26 0L140.61 0 140.61-40.5 144.26-40.5 144.26 0ZM181.75 0L178.65 0 171.8-40.5 175.05-40.5 180.4-7.6 186.5-39.9 189.65-39.9 195.9-7.55 200.85-40.5 204.05-40.5 197.5 0 194.55 0 188.1-33.4 181.75 0ZM221.57 0.45L221.57 0.45Q218.87 0.45 217.15-0.63 215.42-1.7 214.6-4.2 213.77-6.7 213.77-10.85L213.77-10.85 213.77-18.15Q213.77-22.45 214.62-24.88 215.47-27.3 217.22-28.33 218.97-29.35 221.62-29.35L221.62-29.35Q224.67-29.35 226.27-28.05 227.87-26.75 228.5-24.13 229.12-21.5 229.12-17.4L229.12-17.4 229.12-14.8 217.42-14.8 217.42-9.75Q217.42-6.95 217.85-5.33 218.27-3.7 219.2-3 220.12-2.3 221.57-2.3L221.57-2.3Q222.67-2.3 223.57-2.73 224.47-3.15 225-4.38 225.52-5.6 225.52-7.85L225.52-7.85 225.52-9.85 229.07-9.85 229.07-8.25Q229.07-4.3 227.45-1.93 225.82 0.45 221.57 0.45ZM217.42-18.85L217.42-16.9 225.52-16.9 225.52-19.3Q225.52-21.6 225.27-23.23 225.02-24.85 224.2-25.73 223.37-26.6 221.57-26.6L221.57-26.6Q220.07-26.6 219.15-25.95 218.22-25.3 217.82-23.63 217.42-21.95 217.42-18.85L217.42-18.85ZM244.44 0L240.79 0 240.79-40.5 244.44-40.5 244.44 0ZM260.76 0L257.11 0 257.11-40.5 260.76-40.5 260.76 0ZM276.59 0L272.94 0 272.94-28.9 276.59-28.9 276.59-25.9Q277.99-27.4 279.74-28.38 281.49-29.35 283.54-29.35L283.54-29.35Q284.99-29.35 285.99-28.63 286.99-27.9 287.49-26.53 287.99-25.15 287.99-23.2L287.99-23.2 287.99 0 284.34 0 284.34-22.4Q284.34-24.65 283.66-25.58 282.99-26.5 281.59-26.5L281.59-26.5Q280.34-26.5 279.04-25.75 277.74-25 276.59-23.8L276.59-23.8 276.59 0ZM306.86 0.45L306.86 0.45Q304.16 0.45 302.43-0.63 300.71-1.7 299.88-4.2 299.06-6.7 299.06-10.85L299.06-10.85 299.06-18.15Q299.06-22.45 299.91-24.88 300.76-27.3 302.51-28.33 304.26-29.35 306.91-29.35L306.91-29.35Q309.96-29.35 311.56-28.05 313.16-26.75 313.78-24.13 314.41-21.5 314.41-17.4L314.41-17.4 314.41-14.8 302.71-14.8 302.71-9.75Q302.71-6.95 303.13-5.33 303.56-3.7 304.48-3 305.41-2.3 306.86-2.3L306.86-2.3Q307.96-2.3 308.86-2.73 309.76-3.15 310.28-4.38 310.81-5.6 310.81-7.85L310.81-7.85 310.81-9.85 314.36-9.85 314.36-8.25Q314.36-4.3 312.73-1.93 311.11 0.45 306.86 0.45ZM302.71-18.85L302.71-16.9 310.81-16.9 310.81-19.3Q310.81-21.6 310.56-23.23 310.31-24.85 309.48-25.73 308.66-26.6 306.86-26.6L306.86-26.6Q305.36-26.6 304.43-25.95 303.51-25.3 303.11-23.63 302.71-21.95 302.71-18.85L302.71-18.85ZM332.18 0.45L332.18 0.45Q328.73 0.45 326.68-1.78 324.63-4 324.33-7.75L324.33-7.75 327.38-8.7Q327.68-5.35 328.93-3.83 330.18-2.3 332.43-2.3L332.43-2.3Q334.33-2.3 335.35-3.38 336.38-4.45 336.38-6.4L336.38-6.4Q336.38-7.8 335.53-9.22 334.68-10.65 332.88-12.2L332.88-12.2 328.93-15.6Q326.98-17.25 325.98-18.9 324.98-20.55 324.98-22.85L324.98-22.85Q324.98-24.95 325.85-26.38 326.73-27.8 328.28-28.58 329.83-29.35 331.88-29.35L331.88-29.35Q335.18-29.35 336.88-27.23 338.58-25.1 338.73-21.75L338.73-21.75 336.13-20.9Q336.03-22.85 335.53-24.13 335.03-25.4 334.15-26 333.28-26.6 332.03-26.6L332.03-26.6Q330.38-26.6 329.35-25.68 328.33-24.75 328.33-23.1L328.33-23.1Q328.33-21.8 328.83-20.8 329.33-19.8 330.68-18.55L330.68-18.55 334.78-14.9Q335.98-13.85 337.08-12.65 338.18-11.45 338.88-9.98 339.58-8.5 339.58-6.5L339.58-6.5Q339.58-4.25 338.65-2.73 337.73-1.2 336.08-0.38 334.43 0.45 332.18 0.45ZM356.55 0.45L356.55 0.45Q353.1 0.45 351.05-1.78 349-4 348.7-7.75L348.7-7.75 351.75-8.7Q352.05-5.35 353.3-3.83 354.55-2.3 356.8-2.3L356.8-2.3Q358.7-2.3 359.73-3.38 360.75-4.45 360.75-6.4L360.75-6.4Q360.75-7.8 359.9-9.22 359.05-10.65 357.25-12.2L357.25-12.2 353.3-15.6Q351.35-17.25 350.35-18.9 349.35-20.55 349.35-22.85L349.35-22.85Q349.35-24.95 350.23-26.38 351.1-27.8 352.65-28.58 354.2-29.35 356.25-29.35L356.25-29.35Q359.55-29.35 361.25-27.23 362.95-25.1 363.1-21.75L363.1-21.75 360.5-20.9Q360.4-22.85 359.9-24.13 359.4-25.4 358.53-26 357.65-26.6 356.4-26.6L356.4-26.6Q354.75-26.6 353.73-25.68 352.7-24.75 352.7-23.1L352.7-23.1Q352.7-21.8 353.2-20.8 353.7-19.8 355.05-18.55L355.05-18.55 359.15-14.9Q360.35-13.85 361.45-12.65 362.55-11.45 363.25-9.98 363.95-8.5 363.95-6.5L363.95-6.5Q363.95-4.25 363.03-2.73 362.1-1.2 360.45-0.38 358.8 0.45 356.55 0.45Z" opacity="1" transform="matrix(1,0,0,1,0,0)" fill="#8abe53" class="undefined-text-1" data-fill-palette-color="secondary" id="text-1"></path></svg></g></svg></g></svg></g></svg></g><g><svg viewBox="0 0 463.1858978732336 463.1858978732336" height="463.1858978732336" width="463.1858978732336"><g><svg></svg></g><g id="icon-0"><svg viewBox="0 0 463.1858978732336 463.1858978732336" height="463.1858978732336" width="463.1858978732336"><g><path d="M0 231.593c0-127.905 103.688-231.593 231.593-231.593 127.905 0 231.593 103.688 231.593 231.593 0 127.905-103.688 231.593-231.593 231.593-127.905 0-231.593-103.688-231.593-231.593zM231.593 456.634c124.287 0 225.041-100.754 225.041-225.041 0-124.287-100.754-225.041-225.041-225.041-124.287 0-225.041 100.754-225.041 225.041 0 124.287 100.754 225.041 225.041 225.041z" data-fill-palette-color="accent" fill="#8abe53" stroke="transparent"></path><ellipse rx="229.27701944725064" ry="229.27701944725064" cx="231.5929489366168" cy="231.5929489366168" fill="#8abe53" stroke="transparent" stroke-width="0" fill-opacity="1" data-fill-palette-color="accent"></ellipse></g><g transform="matrix(1,0,0,1,112.53284682412439,89.74854285450712)"><svg viewBox="0 0 238.12020422498483 283.68881216421937" height="283.68881216421937" width="238.12020422498483"><g><svg xmlns="http://www.w3.org/2000/svg" xmlns:xlink="http://www.w3.org/1999/xlink" version="1.1" x="0" y="0" viewBox="10.836000442504883 5.258999824523926 75.32600402832031 89.74099731445312" enable-background="new 0 0 100 100" xml:space="preserve" height="283.68881216421937" width="238.12020422498483" class="icon-a-0" data-fill-palette-color="quaternary" id="a-0"><g fill="#729343" data-fill-palette-color="quaternary"><path d="M84.637 48.243h-9.914c-0.843 0-1.525-0.683-1.525-1.525s0.683-1.525 1.525-1.525h9.914c0.843 0 1.525 0.683 1.525 1.525S85.48 48.243 84.637 48.243z" fill="#729343" data-fill-palette-color="quaternary"></path></g><g fill="#729343" data-fill-palette-color="quaternary"><path d="M50.016 18.223c-0.842 0-1.525-0.683-1.525-1.525V6.784c0-0.842 0.683-1.525 1.525-1.525s1.525 0.683 1.525 1.525v9.914C51.541 17.54 50.858 18.223 50.016 18.223z" fill="#729343" data-fill-palette-color="quaternary"></path></g><g fill="#729343" data-fill-palette-color="quaternary"><path d="M73.032 33.907c-0.608 0-1.184-0.367-1.42-0.968-0.308-0.784 0.078-1.669 0.861-1.978l8.761-3.445c0.784-0.307 1.67 0.077 1.979 0.861 0.308 0.784-0.078 1.669-0.861 1.978L73.59 33.8C73.407 33.872 73.218 33.907 73.032 33.907z" fill="#729343" data-fill-palette-color="quaternary"></path></g><g fill="#729343" data-fill-palette-color="quaternary"><path d="M64.869 22.547c-0.306 0-0.614-0.091-0.882-0.282-0.688-0.487-0.849-1.439-0.361-2.126l5.738-8.084c0.489-0.687 1.441-0.848 2.127-0.361 0.688 0.487 0.849 1.439 0.361 2.126l-5.738 8.084C65.816 22.324 65.347 22.547 64.869 22.547z" fill="#729343" data-fill-palette-color="quaternary"></path></g><path d="M56.813 72.963c-4.102-4.614 13.011-8.355 13.011-26.246 0-23.966-17.448-24.261-21.116-24.261s-21.116 2.126-21.116 24.261c0 17.891 17.113 21.632 13.011 26.246C35.197 79.044 16.501 71.387 16.501 95h32.207 32.207C80.916 71.387 62.22 79.044 56.813 72.963zM48.681 52.826c-2.086-1.149-7.736-4.905-8.062-9.794-0.381-5.712 6.958-4.948 8.062-0.716 1.104-4.233 8.443-4.996 8.062 0.716C56.417 47.92 50.767 51.677 48.681 52.826z" fill="#729343" data-fill-palette-color="quaternary"></path><g fill="#729343" data-fill-palette-color="quaternary"><path d="M22.274 48.243h-9.913c-0.842 0-1.525-0.683-1.525-1.525s0.683-1.525 1.525-1.525h9.913c0.842 0 1.525 0.683 1.525 1.525S23.116 48.243 22.274 48.243z" fill="#729343" data-fill-palette-color="quaternary"></path></g><g fill="#729343" data-fill-palette-color="quaternary"><path d="M23.966 33.907c-0.186 0-0.375-0.034-0.558-0.106l-8.761-3.445c-0.784-0.308-1.17-1.194-0.861-1.978s1.194-1.17 1.978-0.861l8.761 3.445c0.784 0.308 1.17 1.194 0.861 1.978C25.149 33.539 24.574 33.907 23.966 33.907z" fill="#729343" data-fill-palette-color="quaternary"></path></g><g fill="#729343" data-fill-palette-color="quaternary"><path d="M35.131 21.546c-0.478 0-0.948-0.224-1.245-0.643l-5.738-8.084c-0.488-0.687-0.326-1.639 0.361-2.126 0.688-0.488 1.639-0.326 2.126 0.361l5.738 8.084c0.488 0.687 0.326 1.639-0.361 2.126C35.745 21.455 35.437 21.546 35.131 21.546z" fill="#729343" data-fill-palette-color="quaternary"></path></g></svg></g></svg></g></svg></g></svg></g><g></g></svg></g><defs></defs></svg><rect width="181.1176738002894" height="247.2" fill="none" stroke="none" visibility="hidden"></rect></g></svg></g></svg>